<svg xmlns="http://www.w3.org/2000/svg" xmlns:xlink="http://www.w3.org/1999/xlink" id="Layer_1" data-name="Layer 1" viewBox="0 0 211.8 233.01"><defs><style>.cls-1,.cls-11,.cls-2,.cls-6,.cls-8{fill:none}.cls-2{stroke:#d3d3d3}.cls-11,.cls-2,.cls-6,.cls-8{stroke-width:.75px}.cls-3{font-size:6.21px;fill:#232323}.cls-3,.cls-4,.cls-7,.cls-9{font-family:&quot;Roboto-Regular&quot;,&quot;Roboto&quot;,Arial,Helvetica,sans-serif}.cls-4{font-size:10.35px;fill:#424242}.cls-5{clip-path:url(#clip-path)}.cls-6{stroke:#ccc}.cls-7,.cls-9{font-size:7.24px}.cls-7{fill:#666}.cls-8{stroke:#666}.cls-9{fill:#0b7fad}.cls-10{fill:#53b8e4}.cls-11{stroke:#53b8e4}</style><clipPath id="clip-path" transform="translate(-4.61 -1.37)"><rect width="200.19" height="174.32" x="15.59" y="49.07" class="cls-1"/></clipPath></defs><title>duration</title><rect width="211.05" height="232.26" x=".38" y=".38" class="cls-2"/><text class="cls-3" transform="translate(10.8 18.74)">Median</text><text class="cls-4" transform="translate(10.8 33.22)">1s</text><text class="cls-3" transform="translate(43.74 18.74)">Dur</text><text class="cls-3" transform="translate(53.21 18.74)">ation &lt; 500ms</text><text class="cls-4" transform="translate(43.74 33.22)">26.16%</text><g class="cls-5"><line x1="44.6" x2="44.6" y1="50.29" y2="203.93" class="cls-6"/><line x1="85.6" x2="85.6" y1="50.29" y2="203.93" class="cls-6"/><line x1="126.59" x2="126.59" y1="50.29" y2="203.93" class="cls-6"/><line x1="167.59" x2="167.59" y1="50.29" y2="203.93" class="cls-6"/><line x1="208.58" x2="208.58" y1="50.29" y2="203.93" class="cls-6"/><text class="cls-7" transform="translate(42.57 213.21)">0</text><text class="cls-7" transform="translate(75.43 213.21)">70000</text><text class="cls-7" transform="translate(114.39 213.21)">140000</text><text class="cls-7" transform="translate(155.39 213.21)">210000</text><text class="cls-7" transform="translate(186.77 213.21)">280000</text><line x1="44.6" x2="44.6" y1="50.29" y2="203.93" class="cls-8"/><line x1="41.5" x2="44.6" y1="65.66" y2="65.66" class="cls-8"/><text class="cls-9" transform="translate(19.28 68.23)">0s - 1s</text><line x1="41.5" x2="44.6" y1="96.38" y2="96.38" class="cls-8"/><text class="cls-9" transform="translate(19.28 98.95)">1s - 5s</text><line x1="41.5" x2="44.6" y1="127.11" y2="127.11" class="cls-8"/><text class="cls-9" transform="translate(15.21 129.68)">5s - 30s</text><line x1="41.5" x2="44.6" y1="157.84" y2="157.84" class="cls-8"/><text class="cls-9" transform="translate(12.6 160.41)">30s - 1m</text><line x1="41.5" x2="44.6" y1="188.56" y2="188.56" class="cls-8"/><text class="cls-9" transform="translate(24.15 191.13)">1m +</text><rect width="159.24" height="16.55" x="44.6" y="57.24" class="cls-10"/><rect width="159.24" height="16.55" x="44.6" y="57.24" class="cls-11"/><rect width="118.72" height="16.55" x="44.6" y="87.97" class="cls-10"/><rect width="118.72" height="16.55" x="44.6" y="87.97" class="cls-11"/><rect width="84.25" height="16.55" x="44.6" y="118.7" class="cls-10"/><rect width="84.25" height="16.55" x="44.6" y="118.7" class="cls-11"/><rect width="19.49" height="16.55" x="44.6" y="149.42" class="cls-10"/><rect width="19.49" height="16.55" x="44.6" y="149.42" class="cls-11"/><rect width="54.26" height="16.55" x="44.6" y="180.15" class="cls-10"/><rect width="54.26" height="16.55" x="44.6" y="180.15" class="cls-11"/></g></svg>