<svg xmlns="http://www.w3.org/2000/svg" xmlns:xlink="http://www.w3.org/1999/xlink" id="Layer_1" data-name="Layer 1" viewBox="0 0 422.07 235.86"><defs><style>.cls-1,.cls-2,.cls-4,.cls-40{fill:none}.cls-2{clip-rule:evenodd}.cls-3{fill:#fff}.cls-4{stroke:#d3d3d3}.cls-4,.cls-40{stroke-width:.52px}.cls-5{clip-path:url(#clip-path)}.cls-6{fill:#e8e8e8}.cls-7{clip-path:url(#clip-path-2)}.cls-19,.cls-31,.cls-34,.cls-8,.cls-9{font-size:7.24px}.cls-19,.cls-39,.cls-8{fill:#0b7fad}.cls-8{font-family:&quot;Roboto-Regular&quot;,&quot;Roboto&quot;,Arial,Helvetica,sans-serif}.cls-34,.cls-9{fill:#424242}.cls-19,.cls-9{font-family:&quot;Roboto-Regular&quot;,&quot;Roboto&quot;,Arial,Helvetica,sans-serif}.cls-10{clip-path:url(#clip-path-4)}.cls-11{fill:#d9d9d9}.cls-12{clip-path:url(#clip-path-5)}.cls-13{clip-path:url(#clip-path-6)}.cls-14{clip-path:url(#clip-path-8)}.cls-15{fill:#e7e7e7}.cls-16{clip-path:url(#clip-path-9)}.cls-17{opacity:.02}.cls-18{clip-path:url(#clip-path-10)}.cls-20{clip-path:url(#clip-path-12)}.cls-21{clip-path:url(#clip-path-14)}.cls-22{clip-path:url(#clip-path-16)}.cls-23{clip-path:url(#clip-path-18)}.cls-24{clip-path:url(#clip-path-20)}.cls-25{clip-path:url(#clip-path-22)}.cls-26{clip-path:url(#clip-path-24)}.cls-27{clip-path:url(#clip-path-26)}.cls-28{clip-path:url(#clip-path-28)}.cls-29{clip-path:url(#clip-path-30)}.cls-30{clip-path:url(#clip-path-32)}.cls-31,.cls-41{fill:#69ac13}.cls-31{font-family:&quot;Roboto-Regular&quot;,&quot;Roboto&quot;,Arial,Helvetica,sans-serif}.cls-32{opacity:.05}.cls-33{clip-path:url(#clip-path-37)}.cls-34{font-family:&quot;Roboto-Regular&quot;,&quot;Roboto&quot;,Arial,Helvetica,sans-serif;font-weight:700}.cls-35{clip-path:url(#clip-path-39)}.cls-36{clip-path:url(#clip-path-41)}.cls-37{clip-path:url(#clip-path-43)}.cls-38{clip-path:url(#clip-path-45)}.cls-40{stroke:#0b7fad}</style><clipPath id="clip-path" transform="translate(-4.52 -1.45)"><rect width="400.34" height="217.24" x="15.38" y="6.1" class="cls-1"/></clipPath><clipPath id="clip-path-2" transform="translate(-4.52 -1.45)"><rect width="400.34" height="22.76" x="15.38" y="6.1" class="cls-1"/></clipPath><clipPath id="clip-path-4" transform="translate(-4.52 -1.45)"><path d="M57.28,37.14h62.06a1,1,0,0,1,.76.33l-.36.36a.51.51,0,0,0-.4-.17H57.28Z" class="cls-2"/></clipPath><clipPath id="clip-path-5" transform="translate(-4.52 -1.45)"><path d="M119.34,53.69H57.28v-.52h62.06a.52.52,0,0,0,.4-.18l.36.37A1,1,0,0,1,119.34,53.69Z" class="cls-2"/></clipPath><clipPath id="clip-path-6" transform="translate(-4.52 -1.45)"><path d="M119.86,52.66a.49.49,0,0,1-.15.36l.37.37a1,1,0,0,0,.3-.73V38.17a1,1,0,0,0-.3-.73l-.37.37a.49.49,0,0,1,.15.36Z" class="cls-2"/></clipPath><clipPath id="clip-path-8" transform="translate(-4.52 -1.45)"><rect width="400.34" height="159.31" x="15.38" y="64.03" class="cls-1"/></clipPath><clipPath id="clip-path-9" transform="translate(-4.52 -1.45)"><rect width="400.34" height="137.59" x="15.38" y="85.76" class="cls-1"/></clipPath><clipPath id="clip-path-10" transform="translate(-4.52 -1.45)"><rect width="94.66" height="12.93" x="50.55" y="89.9" class="cls-1"/></clipPath><clipPath id="clip-path-12" transform="translate(-4.52 -1.45)"><rect width="51.21" height="21.21" x="149.86" y="85.76" class="cls-1"/></clipPath><clipPath id="clip-path-14" transform="translate(-4.52 -1.45)"><rect width="94.66" height="12.93" x="50.55" y="111.62" class="cls-1"/></clipPath><clipPath id="clip-path-16" transform="translate(-4.52 -1.45)"><rect width="51.21" height="21.21" x="149.86" y="107.48" class="cls-1"/></clipPath><clipPath id="clip-path-18" transform="translate(-4.52 -1.45)"><rect width="94.66" height="12.93" x="50.55" y="133.34" class="cls-1"/></clipPath><clipPath id="clip-path-20" transform="translate(-4.52 -1.45)"><rect width="51.21" height="21.21" x="149.86" y="129.21" class="cls-1"/></clipPath><clipPath id="clip-path-22" transform="translate(-4.52 -1.45)"><rect width="94.66" height="12.93" x="50.55" y="155.07" class="cls-1"/></clipPath><clipPath id="clip-path-24" transform="translate(-4.52 -1.45)"><rect width="51.21" height="21.21" x="149.86" y="150.93" class="cls-1"/></clipPath><clipPath id="clip-path-26" transform="translate(-4.52 -1.45)"><rect width="94.66" height="12.93" x="50.55" y="176.79" class="cls-1"/></clipPath><clipPath id="clip-path-28" transform="translate(-4.52 -1.45)"><rect width="51.21" height="21.21" x="149.86" y="172.66" class="cls-1"/></clipPath><clipPath id="clip-path-30" transform="translate(-4.52 -1.45)"><rect width="94.66" height="12.93" x="50.55" y="198.52" class="cls-1"/></clipPath><clipPath id="clip-path-32" transform="translate(-4.52 -1.45)"><rect width="51.21" height="21.21" x="149.86" y="194.38" class="cls-1"/></clipPath><clipPath id="clip-path-37" transform="translate(-4.52 -1.45)"><rect width="30.52" height="21.21" x="15.38" y="64.03" class="cls-1"/></clipPath><clipPath id="clip-path-39" transform="translate(-4.52 -1.45)"><rect width="94.66" height="12.93" x="50.55" y="68.17" class="cls-1"/></clipPath><clipPath id="clip-path-41" transform="translate(-4.52 -1.45)"><rect width="42.93" height="12.93" x="154" y="68.17" class="cls-1"/></clipPath><clipPath id="clip-path-43" transform="translate(-4.52 -1.45)"><rect width="53.28" height="12.93" x="205.72" y="68.17" class="cls-1"/></clipPath><clipPath id="clip-path-45" transform="translate(-4.52 -1.45)"><rect width="53.79" height="12.93" x="267.79" y="68.17" class="cls-1"/></clipPath></defs><title>outliers</title><path d="M439,170.07" class="cls-3" transform="translate(-4.52 -1.45)"/><rect width="421.55" height="232.24" x=".26" y=".26" class="cls-4"/><g class="cls-5"><rect width="400.34" height=".52" x="10.86" y="26.9" class="cls-6"/></g><g class="cls-7"><text class="cls-8" transform="translate(19.14 18.62)">Queries</text><text class="cls-9" transform="translate(77.17 18.62)">T</text><text class="cls-9" transform="translate(81.14 18.62)">op User/P</text><text class="cls-9" transform="translate(113.35 18.62)">ool/Database</text></g><g class="cls-5"><path d="M57.28,53.43v-16h62.06a.79.79,0,0,1,.78.77V52.66a.74.74,0,0,1-.23.54.71.71,0,0,1-.55.23Z" class="cls-3" transform="translate(-4.52 -1.45)"/></g><g class="cls-10"><rect width="63.1" height="16.55" x="52.76" y="35.69" class="cls-11"/></g><g class="cls-12"><rect width="63.1" height="16.55" x="52.76" y="35.69" class="cls-11"/></g><g class="cls-13"><rect width="63.1" height="16.55" x="52.76" y="35.69" class="cls-11"/></g><g class="cls-5"><text class="cls-9" transform="translate(60.74 46.55)">Most Complex</text><rect width=".52" height="15.52" x="52.24" y="36.21" class="cls-3"/></g><g class="cls-14"><rect width="400.34" height=".52" x="10.86" y="83.79" class="cls-15"/></g><g class="cls-16"><rect width="400.34" height=".52" x="10.86" y="105.52" class="cls-15"/><rect width="400.34" height=".52" x="10.86" y="127.24" class="cls-15"/><rect width="400.34" height=".52" x="10.86" y="148.97" class="cls-15"/><rect width="400.34" height=".52" x="10.86" y="170.69" class="cls-15"/><rect width="400.34" height=".52" x="10.86" y="192.41" class="cls-15"/><rect width="400.34" height=".52" x="10.86" y="214.14" class="cls-15"/><rect width=".52" height="21.21" x="41.38" y="84.31" class="cls-17"/><rect width=".52" height="21.21" x="144.83" y="84.31" class="cls-17"/></g><g class="cls-18"><text class="cls-19" transform="translate(46.03 97.24)">select a11.CPD_D</text><text class="cls-19" transform="translate(103.07 97.24)">T D</text><text class="cls-19" transform="translate(113.84 97.24)">T_1, a</text><text class="cls-19" transform="translate(132.65 97.24)">...</text></g><g class="cls-16"><rect width=".52" height="21.21" x="196.55" y="84.31" class="cls-17"/></g><g class="cls-20"><text class="cls-9" transform="translate(150.18 97.24)">3776h 54m</text><text class="cls-9" transform="translate(186.7 97.24)">...</text></g><g class="cls-16"><rect width=".52" height="21.21" x="258.62" y="84.31" class="cls-17"/><text class="cls-9" transform="translate(201.21 97.24)">slaskar</text><text class="cls-9" transform="translate(263.28 97.24)">r</text><text class="cls-9" transform="translate(265.66 97.24)">oot.impalaad</text><text class="cls-9" transform="translate(308.01 97.24)">...</text><rect width=".52" height="21.21" x="41.38" y="106.03" class="cls-17"/><rect width=".52" height="21.21" x="144.83" y="106.03" class="cls-17"/></g><g class="cls-21"><text class="cls-19" transform="translate(46.03 118.97)">select a13.REGN_CD REGN</text><text class="cls-19" transform="translate(132.98 118.97)">...</text></g><g class="cls-16"><rect width=".52" height="21.21" x="196.55" y="106.03" class="cls-17"/></g><g class="cls-22"><text class="cls-9" transform="translate(150.18 118.97)">3776h 54m</text><text class="cls-9" transform="translate(186.7 118.97)">...</text></g><g class="cls-16"><rect width=".52" height="21.21" x="258.62" y="106.03" class="cls-17"/><text class="cls-9" transform="translate(201.21 118.97)">slaskar</text><text class="cls-9" transform="translate(263.28 118.97)">r</text><text class="cls-9" transform="translate(265.66 118.97)">oot.impalaad</text><text class="cls-9" transform="translate(308.01 118.97)">...</text><rect width=".52" height="21.21" x="41.38" y="127.76" class="cls-17"/><rect width=".52" height="21.21" x="144.83" y="127.76" class="cls-17"/></g><g class="cls-23"><text class="cls-19" transform="translate(46.03 140.69)">select a13.REGN_CD REGN</text><text class="cls-19" transform="translate(132.98 140.69)">...</text></g><g class="cls-16"><rect width=".52" height="21.21" x="196.55" y="127.76" class="cls-17"/></g><g class="cls-24"><text class="cls-9" transform="translate(150.18 140.69)">3776h 54m</text><text class="cls-9" transform="translate(186.7 140.69)">...</text></g><g class="cls-16"><rect width=".52" height="21.21" x="258.62" y="127.76" class="cls-17"/><text class="cls-9" transform="translate(201.21 140.69)">slaskar</text><text class="cls-9" transform="translate(263.28 140.69)">r</text><text class="cls-9" transform="translate(265.66 140.69)">oot.impalaad</text><text class="cls-9" transform="translate(308.01 140.69)">...</text><rect width=".52" height="21.21" x="41.38" y="149.48" class="cls-17"/><rect width=".52" height="21.21" x="144.83" y="149.48" class="cls-17"/></g><g class="cls-25"><text class="cls-19" transform="translate(46.03 162.41)">select a11.mr</text><text class="cls-19" transform="translate(89.85 162.41)">ch_ctr</text><text class="cls-19" transform="translate(109.57 162.41)">y_cd mr</text><text class="cls-19" transform="translate(134.73 162.41)">...</text></g><g class="cls-16"><rect width=".52" height="21.21" x="196.55" y="149.48" class="cls-17"/></g><g class="cls-26"><text class="cls-9" transform="translate(150.18 162.41)">3776h 54m</text><text class="cls-9" transform="translate(186.7 162.41)">...</text></g><g class="cls-16"><rect width=".52" height="21.21" x="258.62" y="149.48" class="cls-17"/><text class="cls-9" transform="translate(201.21 162.41)">slaskar</text><text class="cls-9" transform="translate(263.28 162.41)">r</text><text class="cls-9" transform="translate(265.66 162.41)">oot.impalaad</text><text class="cls-9" transform="translate(308.01 162.41)">...</text><rect width=".52" height="21.21" x="41.38" y="171.21" class="cls-17"/><rect width=".52" height="21.21" x="144.83" y="171.21" class="cls-17"/></g><g class="cls-27"><text class="cls-19" transform="translate(46.03 184.14)">select a11.CPD_D</text><text class="cls-19" transform="translate(103.07 184.14)">T D</text><text class="cls-19" transform="translate(113.84 184.14)">T_1, a</text><text class="cls-19" transform="translate(132.65 184.14)">...</text></g><g class="cls-16"><rect width=".52" height="21.21" x="196.55" y="171.21" class="cls-17"/></g><g class="cls-28"><text class="cls-9" transform="translate(150.18 184.14)">3776h 54m</text><text class="cls-9" transform="translate(186.7 184.14)">...</text></g><g class="cls-16"><rect width=".52" height="21.21" x="258.62" y="171.21" class="cls-17"/><text class="cls-9" transform="translate(201.21 184.14)">slaskar</text><text class="cls-9" transform="translate(263.28 184.14)">r</text><text class="cls-9" transform="translate(265.66 184.14)">oot.impalaad</text><text class="cls-9" transform="translate(308.01 184.14)">...</text><rect width=".52" height="21.21" x="41.38" y="192.93" class="cls-17"/><rect width=".52" height="21.21" x="144.83" y="192.93" class="cls-17"/></g><g class="cls-29"><text class="cls-19" transform="translate(46.03 205.86)">SELEC</text><text class="cls-19" transform="translate(67.07 205.86)">T a11.issr_usr_bus_i</text><text class="cls-19" transform="translate(132.36 205.86)">...</text></g><g class="cls-16"><rect width=".52" height="21.21" x="196.55" y="192.93" class="cls-17"/></g><g class="cls-30"><text class="cls-9" transform="translate(150.18 205.86)">3776h 54m</text><text class="cls-9" transform="translate(186.7 205.86)">...</text></g><g class="cls-16"><rect width=".52" height="21.21" x="258.62" y="192.93" class="cls-17"/><text class="cls-9" transform="translate(201.21 205.86)">slaskar</text><text class="cls-9" transform="translate(263.28 205.86)">r</text><text class="cls-9" transform="translate(265.66 205.86)">oot.impalaad</text><text class="cls-9" transform="translate(308.01 205.86)">...</text><rect width=".52" height="21.21" x="41.38" y="214.66" class="cls-17"/><text class="cls-31" transform="translate(23.02 227.59)"></text><rect width=".52" height="21.21" x="144.83" y="214.66" class="cls-17"/></g><g class="cls-16"><rect width=".52" height="21.21" x="196.55" y="214.66" class="cls-17"/></g><g class="cls-16"><rect width=".52" height="21.21" x="258.62" y="214.66" class="cls-17"/></g><g class="cls-14"><rect width="31.03" height="21.21" x="10.86" y="62.59" class="cls-3"/><rect width=".52" height="21.21" x="41.38" y="62.59" class="cls-32"/></g><g class="cls-33"><text class="cls-34" transform="translate(15.62 75.52)">Status</text></g><g class="cls-14"><rect width="103.45" height="21.21" x="41.9" y="62.59" class="cls-3"/><rect width=".52" height="21.21" x="144.83" y="62.59" class="cls-32"/></g><g class="cls-35"><text class="cls-34" transform="translate(46.03 75.52)">Quer</text><text class="cls-34" transform="translate(61.71 75.52)">y</text></g><g class="cls-14"><rect width="51.72" height="21.21" x="145.34" y="62.59" class="cls-3"/><rect width=".52" height="21.21" x="196.55" y="62.59" class="cls-32"/></g><g class="cls-36"><text class="cls-34" transform="translate(164.72 75.52)">Dur</text><text class="cls-34" transform="translate(176.02 75.52)">ation</text></g><g class="cls-14"><rect width="62.07" height="21.21" x="197.07" y="62.59" class="cls-3"/><rect width=".52" height="21.21" x="258.62" y="62.59" class="cls-32"/></g><g class="cls-37"><text class="cls-34" transform="translate(201.21 75.52)">User</text></g><g class="cls-14"><rect width="62.07" height="21.21" x="259.14" y="62.59" class="cls-3"/></g><g class="cls-38"><text class="cls-34" transform="translate(263.28 75.52)">P</text><text class="cls-34" transform="translate(267.9 75.52)">ool</text></g><g class="cls-7"><rect width="41.38" height="1.03" x="10.86" y="26.38" class="cls-39"/></g><g class="cls-5"><path d="M15.64,52.66V38.17a.7.7,0,0,1,.23-.54.74.74,0,0,1,.54-.23H57v16H16.41a.79.79,0,0,1-.77-.77Z" class="cls-3" transform="translate(-4.52 -1.45)"/><path d="M15.64,52.66V38.17a.74.74,0,0,1,.23-.55.73.73,0,0,1,.54-.22H57v16H16.41a.79.79,0,0,1-.77-.77Z" class="cls-40" transform="translate(-4.52 -1.45)"/><text class="cls-19" transform="translate(19.14 46.55)">Slowest</text></g><path d="M29.45,92a4.46,4.46,0,1,0,4.46,4.45A4.45,4.45,0,0,0,29.45,92Zm0,.86a3.59,3.59,0,1,1-3.59,3.59,3.59,3.59,0,0,1,3.59-3.59M32,95.2l-.4-.41a.23.23,0,0,0-.31,0l-2.54,2.52-1.07-1.08a.21.21,0,0,0-.31,0l-.4.4a.21.21,0,0,0,0,.31l1.63,1.64a.22.22,0,0,0,.3,0L32,95.51a.23.23,0,0,0,0-.31Z" class="cls-41" transform="translate(-4.52 -1.45)"/><path d="M29.45,113.77a4.46,4.46,0,1,0,4.46,4.45A4.45,4.45,0,0,0,29.45,113.77Zm0,.86a3.6,3.6,0,1,1-3.59,3.59,3.59,3.59,0,0,1,3.59-3.59M32,117l-.4-.41a.23.23,0,0,0-.31,0l-2.54,2.52L27.65,118a.21.21,0,0,0-.31,0l-.4.4a.21.21,0,0,0,0,.31l1.63,1.64a.22.22,0,0,0,.3,0l3.1-3.07a.23.23,0,0,0,0-.31Z" class="cls-41" transform="translate(-4.52 -1.45)"/><path d="M29.45,135.54A4.46,4.46,0,1,0,33.91,140,4.45,4.45,0,0,0,29.45,135.54Zm0,.86A3.6,3.6,0,1,1,25.86,140a3.59,3.59,0,0,1,3.59-3.59M32,138.74l-.4-.41a.23.23,0,0,0-.31,0l-2.54,2.52-1.07-1.08a.21.21,0,0,0-.31,0l-.4.4a.21.21,0,0,0,0,.31l1.63,1.64a.21.21,0,0,0,.3,0l3.1-3.07a.23.23,0,0,0,0-.31Z" class="cls-41" transform="translate(-4.52 -1.45)"/><path d="M29.45,157.31a4.46,4.46,0,1,0,4.46,4.46A4.46,4.46,0,0,0,29.45,157.31Zm0,.86a3.6,3.6,0,1,1-3.59,3.6,3.59,3.59,0,0,1,3.59-3.6M32,160.51l-.4-.4a.22.22,0,0,0-.31,0l-2.54,2.52-1.07-1.08a.22.22,0,0,0-.31,0l-.4.4a.21.21,0,0,0,0,.31l1.63,1.64a.2.2,0,0,0,.3,0l3.1-3.07a.23.23,0,0,0,0-.31Z" class="cls-41" transform="translate(-4.52 -1.45)"/><path d="M29.45,179.08a4.46,4.46,0,1,0,4.46,4.46A4.46,4.46,0,0,0,29.45,179.08Zm0,.87a3.59,3.59,0,1,1-3.59,3.59A3.58,3.58,0,0,1,29.45,180M32,182.28l-.4-.4a.21.21,0,0,0-.31,0l-2.54,2.51-1.07-1.08a.23.23,0,0,0-.31,0l-.4.4a.21.21,0,0,0,0,.31l1.63,1.64a.2.2,0,0,0,.3,0l3.1-3.07a.23.23,0,0,0,0-.31Z" class="cls-41" transform="translate(-4.52 -1.45)"/><path d="M29.45,200.85a4.46,4.46,0,1,0,4.46,4.46A4.46,4.46,0,0,0,29.45,200.85Zm0,.87a3.59,3.59,0,1,1-3.59,3.59,3.58,3.58,0,0,1,3.59-3.59M32,204.06l-.4-.41a.21.21,0,0,0-.31,0l-2.54,2.51-1.07-1.08a.23.23,0,0,0-.31,0l-.4.4a.21.21,0,0,0,0,.31l1.63,1.64a.2.2,0,0,0,.3,0l3.1-3.07a.22.22,0,0,0,0-.3Z" class="cls-41" transform="translate(-4.52 -1.45)"/></svg>